<mxfile host="app.diagrams.net" modified="2021-02-24T17:31:27.774Z" agent="5.0 (Windows NT 10.0; Win64; x64) AppleWebKit/537.36 (KHTML, like Gecko) Chrome/88.0.4324.182 Safari/537.36" etag="tdQn3FI1A4CNtTcL0k59" version="14.4.2" type="github">
  <diagram id="1NnK4FntVjuG7IkbfHnp" name="Page-2">
    <mxGraphModel dx="1718" dy="1493" grid="1" gridSize="10" guides="1" tooltips="1" connect="1" arrows="1" fold="1" page="1" pageScale="1" pageWidth="850" pageHeight="1100" math="0" shadow="0">
      <root>
        <mxCell id="PYVz5j9ludCQgyBBFUDJ-0" />
        <mxCell id="PYVz5j9ludCQgyBBFUDJ-1" parent="PYVz5j9ludCQgyBBFUDJ-0" />
        <mxCell id="Osk7ziK2DaWPhimZGtd--0" value="" style="rounded=0;whiteSpace=wrap;html=1;labelBackgroundColor=#ffffff;strokeWidth=2;" parent="PYVz5j9ludCQgyBBFUDJ-1" vertex="1">
          <mxGeometry width="160" height="840" as="geometry" />
        </mxCell>
        <mxCell id="Osk7ziK2DaWPhimZGtd--1" value="" style="rounded=1;whiteSpace=wrap;html=1;labelBackgroundColor=#ffffff;fillColor=#3019FF;" parent="PYVz5j9ludCQgyBBFUDJ-1" vertex="1">
          <mxGeometry x="160" y="50" width="590" height="20" as="geometry" />
        </mxCell>
        <mxCell id="Osk7ziK2DaWPhimZGtd--2" value="Match to KEMI Requirements" style="text;html=1;strokeColor=none;fillColor=none;align=center;verticalAlign=middle;whiteSpace=wrap;rounded=0;labelBackgroundColor=#ffffff;" parent="PYVz5j9ludCQgyBBFUDJ-1" vertex="1">
          <mxGeometry x="10" y="80" width="140" height="30" as="geometry" />
        </mxCell>
        <mxCell id="Osk7ziK2DaWPhimZGtd--4" value="Overall Tools" style="text;html=1;strokeColor=none;fillColor=none;align=center;verticalAlign=middle;whiteSpace=wrap;rounded=0;labelBackgroundColor=#ffffff;" parent="PYVz5j9ludCQgyBBFUDJ-1" vertex="1">
          <mxGeometry x="10" y="120" width="140" height="30" as="geometry" />
        </mxCell>
        <mxCell id="Osk7ziK2DaWPhimZGtd--5" value="Communities" style="text;html=1;strokeColor=none;fillColor=none;align=center;verticalAlign=middle;whiteSpace=wrap;rounded=0;labelBackgroundColor=#ffffff;" parent="PYVz5j9ludCQgyBBFUDJ-1" vertex="1">
          <mxGeometry x="10" y="200" width="140" height="30" as="geometry" />
        </mxCell>
        <mxCell id="Osk7ziK2DaWPhimZGtd--6" value="Features" style="text;html=1;strokeColor=none;fillColor=none;align=center;verticalAlign=middle;whiteSpace=wrap;rounded=0;labelBackgroundColor=#ffffff;" parent="PYVz5j9ludCQgyBBFUDJ-1" vertex="1">
          <mxGeometry x="10" y="160" width="140" height="30" as="geometry" />
        </mxCell>
        <mxCell id="Osk7ziK2DaWPhimZGtd--7" value="Learning Curve" style="text;html=1;strokeColor=none;fillColor=none;align=center;verticalAlign=middle;whiteSpace=wrap;rounded=0;labelBackgroundColor=#ffffff;" parent="PYVz5j9ludCQgyBBFUDJ-1" vertex="1">
          <mxGeometry x="10" y="240" width="140" height="30" as="geometry" />
        </mxCell>
        <mxCell id="Osk7ziK2DaWPhimZGtd--8" value="Long Term Cost" style="text;html=1;strokeColor=none;fillColor=none;align=center;verticalAlign=middle;whiteSpace=wrap;rounded=0;labelBackgroundColor=#ffffff;" parent="PYVz5j9ludCQgyBBFUDJ-1" vertex="1">
          <mxGeometry x="10" y="310" width="140" height="30" as="geometry" />
        </mxCell>
        <mxCell id="Osk7ziK2DaWPhimZGtd--9" value="Ease of use" style="text;html=1;strokeColor=none;fillColor=none;align=center;verticalAlign=middle;whiteSpace=wrap;rounded=0;labelBackgroundColor=#ffffff;" parent="PYVz5j9ludCQgyBBFUDJ-1" vertex="1">
          <mxGeometry x="10" y="280" width="140" height="30" as="geometry" />
        </mxCell>
        <mxCell id="Osk7ziK2DaWPhimZGtd--10" value="Recommendation average (not weighted)" style="text;html=1;strokeColor=none;fillColor=none;align=center;verticalAlign=middle;whiteSpace=wrap;rounded=0;labelBackgroundColor=#ffffff;" parent="PYVz5j9ludCQgyBBFUDJ-1" vertex="1">
          <mxGeometry x="10" y="40" width="140" height="30" as="geometry" />
        </mxCell>
        <mxCell id="Osk7ziK2DaWPhimZGtd--15" value="" style="rounded=1;whiteSpace=wrap;html=1;labelBackgroundColor=#ffffff;fillColor=#66FF66;" parent="PYVz5j9ludCQgyBBFUDJ-1" vertex="1">
          <mxGeometry x="160" y="85" width="590" height="20" as="geometry" />
        </mxCell>
        <mxCell id="Osk7ziK2DaWPhimZGtd--16" value="" style="rounded=1;whiteSpace=wrap;html=1;labelBackgroundColor=#ffffff;fillColor=#FF9999;" parent="PYVz5j9ludCQgyBBFUDJ-1" vertex="1">
          <mxGeometry x="160" y="125" width="590" height="20" as="geometry" />
        </mxCell>
        <mxCell id="Osk7ziK2DaWPhimZGtd--17" value="" style="rounded=1;whiteSpace=wrap;html=1;labelBackgroundColor=#ffffff;fillColor=#FF6666;" parent="PYVz5j9ludCQgyBBFUDJ-1" vertex="1">
          <mxGeometry x="160" y="165" width="590" height="20" as="geometry" />
        </mxCell>
        <mxCell id="Osk7ziK2DaWPhimZGtd--18" value="" style="rounded=1;whiteSpace=wrap;html=1;labelBackgroundColor=#ffffff;fillColor=#3019FF;" parent="PYVz5j9ludCQgyBBFUDJ-1" vertex="1">
          <mxGeometry x="160" y="205" width="590" height="20" as="geometry" />
        </mxCell>
        <mxCell id="Osk7ziK2DaWPhimZGtd--19" value="" style="rounded=1;whiteSpace=wrap;html=1;labelBackgroundColor=#ffffff;fillColor=#3019FF;" parent="PYVz5j9ludCQgyBBFUDJ-1" vertex="1">
          <mxGeometry x="160" y="245" width="590" height="20" as="geometry" />
        </mxCell>
        <mxCell id="Osk7ziK2DaWPhimZGtd--21" value="" style="rounded=1;whiteSpace=wrap;html=1;labelBackgroundColor=#ffffff;fillColor=#3019FF;" parent="PYVz5j9ludCQgyBBFUDJ-1" vertex="1">
          <mxGeometry x="160" y="285" width="590" height="20" as="geometry" />
        </mxCell>
        <mxCell id="Osk7ziK2DaWPhimZGtd--22" value="" style="rounded=1;whiteSpace=wrap;html=1;labelBackgroundColor=#ffffff;fillColor=#3019FF;" parent="PYVz5j9ludCQgyBBFUDJ-1" vertex="1">
          <mxGeometry x="160" y="320" width="590" height="20" as="geometry" />
        </mxCell>
        <mxCell id="BqkYbKqDdbHrHVm6ONR7-0" value="Initial cost" style="text;html=1;strokeColor=none;fillColor=none;align=center;verticalAlign=middle;whiteSpace=wrap;rounded=0;labelBackgroundColor=#ffffff;" vertex="1" parent="PYVz5j9ludCQgyBBFUDJ-1">
          <mxGeometry x="10" y="355" width="140" height="30" as="geometry" />
        </mxCell>
        <mxCell id="BqkYbKqDdbHrHVm6ONR7-1" value="Maintenance and support" style="text;html=1;strokeColor=none;fillColor=none;align=center;verticalAlign=middle;whiteSpace=wrap;rounded=0;labelBackgroundColor=#ffffff;" vertex="1" parent="PYVz5j9ludCQgyBBFUDJ-1">
          <mxGeometry x="10" y="395" width="140" height="30" as="geometry" />
        </mxCell>
        <mxCell id="BqkYbKqDdbHrHVm6ONR7-2" value="Performance" style="text;html=1;strokeColor=none;fillColor=none;align=center;verticalAlign=middle;whiteSpace=wrap;rounded=0;labelBackgroundColor=#ffffff;" vertex="1" parent="PYVz5j9ludCQgyBBFUDJ-1">
          <mxGeometry x="10" y="425" width="140" height="30" as="geometry" />
        </mxCell>
        <mxCell id="BqkYbKqDdbHrHVm6ONR7-3" value="Usability" style="text;html=1;strokeColor=none;fillColor=none;align=center;verticalAlign=middle;whiteSpace=wrap;rounded=0;labelBackgroundColor=#ffffff;" vertex="1" parent="PYVz5j9ludCQgyBBFUDJ-1">
          <mxGeometry x="10" y="465" width="140" height="30" as="geometry" />
        </mxCell>
        <mxCell id="BqkYbKqDdbHrHVm6ONR7-4" value="" style="rounded=1;whiteSpace=wrap;html=1;labelBackgroundColor=#ffffff;fillColor=#3019FF;" vertex="1" parent="PYVz5j9ludCQgyBBFUDJ-1">
          <mxGeometry x="160" y="360" width="590" height="20" as="geometry" />
        </mxCell>
        <mxCell id="BqkYbKqDdbHrHVm6ONR7-5" value="" style="rounded=1;whiteSpace=wrap;html=1;labelBackgroundColor=#ffffff;fillColor=#3019FF;" vertex="1" parent="PYVz5j9ludCQgyBBFUDJ-1">
          <mxGeometry x="160" y="400" width="590" height="20" as="geometry" />
        </mxCell>
        <mxCell id="BqkYbKqDdbHrHVm6ONR7-6" value="" style="rounded=1;whiteSpace=wrap;html=1;labelBackgroundColor=#ffffff;fillColor=#3019FF;" vertex="1" parent="PYVz5j9ludCQgyBBFUDJ-1">
          <mxGeometry x="160" y="435" width="590" height="20" as="geometry" />
        </mxCell>
        <mxCell id="BqkYbKqDdbHrHVm6ONR7-7" value="" style="rounded=1;whiteSpace=wrap;html=1;labelBackgroundColor=#ffffff;fillColor=#3019FF;" vertex="1" parent="PYVz5j9ludCQgyBBFUDJ-1">
          <mxGeometry x="160" y="470" width="590" height="20" as="geometry" />
        </mxCell>
      </root>
    </mxGraphModel>
  </diagram>
</mxfile>
